<svg width="20" height="20" viewBox="0 0 20 20" fill="none" xmlns="http://www.w3.org/2000/svg">
<path d="M4.33433 9.20262C1.96027 9.19598 0.0346049 7.52273 4.45653e-05 5.44809L0 5.44525V0H0.992067V5.4435C1.00332 6.57432 1.75257 7.54941 2.83774 8.01768L2.85712 8.02523H2.86508C3.29306 8.21859 3.79917 8.33197 4.33542 8.33197C6.13802 8.33197 7.59931 7.05111 7.59931 5.47109C7.59931 5.4623 7.59927 5.45352 7.59918 5.44473V5.44609V0H8.59125V5.4435C8.59138 5.45512 8.59147 5.46889 8.59147 5.48262C8.59147 7.53711 6.69134 9.20262 4.34743 9.20262H4.33362H4.33428H4.33433ZM4.79168 20H3.79966V0H4.79168V20ZM15.7044 9.6C13.3331 9.59752 11.4116 7.91328 11.4087 5.83502V5.83478C11.4812 4.56672 11.9103 3.39865 12.6093 2.39006L12.5883 2.42262C13.4672 1.1183 14.5724 0.40002 15.7044 0.40002C16.8363 0.40002 17.9365 1.11826 18.8204 2.4226C19.4984 3.39865 19.9276 4.56674 19.9992 5.8174L20 5.83478C19.9972 7.9133 18.0757 9.59754 15.7046 9.60002L15.7044 9.6ZM15.7044 1.26957C14.001 1.26957 12.4008 4.11742 12.4008 5.8348C12.4008 7.43402 13.8799 8.73043 15.7044 8.73043C17.5289 8.73043 19.0079 7.43402 19.0079 5.8348C19.0079 4.11742 17.4077 1.26957 15.7044 1.26957ZM16.2004 20H15.2084V9.16523H16.2004V20Z" fill="black"/>
</svg>
