<svg width="20" height="20" viewBox="0 0 20 20" fill="none" xmlns="http://www.w3.org/2000/svg">
<path d="M2.59999 2.59527H17.3909V16.4973H2.59999V2.59527ZM16.4818 3.5027H3.5091V15.5898H16.4818V3.5027ZM5.65456 1.95322e-05H14.3454C16.0316 0.00208984 17.3979 1.36594 17.4 3.04885V3.50275H2.59997V3.04904C2.60236 2.20564 2.94509 1.44266 3.4982 0.889277L3.49814 0.889316C4.04752 0.339902 4.807 0 5.64603 0H5.65499H5.65452L5.65456 1.95322e-05ZM16.4427 2.59527C16.2249 1.62391 15.369 0.908613 14.3456 0.907441H5.64849C5.0593 0.907441 4.52591 1.14605 4.14005 1.53174C3.85676 1.81498 3.65196 2.17647 3.56093 2.58088L3.55819 2.59527H16.4427ZM2.56364 15.5898H6.98181V18.6389C6.98181 19.3906 6.37129 20 5.6182 20H3.92724C3.17412 20 2.56364 19.3906 2.56364 18.6389V15.5898ZM6.07274 16.4973H3.47271V18.6389C3.47271 18.8895 3.67624 19.0926 3.92724 19.0926H5.61816C5.8692 19.0926 6.0727 18.8894 6.0727 18.6389L6.07274 16.4973ZM12.9727 15.5898H17.4V18.6389C17.4 19.3906 16.7895 20 16.0364 20H14.3364C13.5832 20 12.9728 19.3906 12.9728 18.6389L12.9727 15.5898ZM16.4909 16.4973H13.8818V18.6389C13.8818 18.8895 14.0853 19.0926 14.3364 19.0926H16.0363C16.2874 19.0926 16.4909 18.8894 16.4909 18.6389L16.4909 16.4973ZM18.2454 3.46641C19.214 3.46746 19.999 4.25098 20 5.2177V7.82213C20 8.7894 19.2145 9.5735 18.2454 9.5735C17.2764 9.5735 16.4909 8.78942 16.4909 7.82213V5.21783C16.4919 4.251 17.2769 3.4675 18.2453 3.46647H18.2454V3.46641ZM18.2454 8.66606C18.7122 8.66553 19.0904 8.28799 19.0909 7.82217V5.21777C19.0909 4.75168 18.7124 4.37383 18.2454 4.37383C17.7785 4.37383 17.4 4.75168 17.4 5.21777V7.82213C17.4005 8.28801 17.7787 8.66553 18.2454 8.66607H18.2454L18.2454 8.66606ZM1.75455 3.46641C2.72314 3.46744 3.50806 4.25094 3.5091 5.21768V7.82213C3.5091 8.7894 2.72357 9.5735 1.75455 9.5735C0.785527 9.5735 0 8.78943 0 7.82213V5.21783C0.00103704 4.251 0.785957 3.4675 1.75445 3.46647H1.75455V3.46641ZM1.75455 8.66602C2.22128 8.66553 2.59948 8.28799 2.60003 7.82217V5.21777C2.60003 4.75168 2.22149 4.37383 1.75455 4.37383C1.28761 4.37383 0.909071 4.75168 0.909071 5.21777V7.82213C0.9096 8.28801 1.28782 8.66553 1.75449 8.66607H1.75455V8.66602ZM7.39091 13.0127C7.39091 13.7293 6.80888 14.3103 6.0909 14.3103C5.37291 14.3103 4.79092 13.7293 4.79092 13.0127C4.79092 12.296 5.37295 11.715 6.09093 11.715C6.80892 11.715 7.39091 12.296 7.39091 13.0127ZM15.2091 13.0127C15.2091 13.7293 14.627 14.3103 13.9091 14.3103C13.1911 14.3103 12.6091 13.7293 12.6091 13.0127C12.6091 12.296 13.1911 11.715 13.9091 11.715C14.6271 11.715 15.2091 12.296 15.2091 13.0127ZM11.7364 13.902H8.26363V12.9945H11.7363L11.7364 13.902ZM16.9454 10.4355H3.05457V9.52813H16.9455L16.9454 10.4355Z" fill="black"/>
</svg>
