<svg width="20" height="20" viewBox="0 0 20 20" fill="none" xmlns="http://www.w3.org/2000/svg">
<path d="M10.0632 1.94035e-05C15.5517 0.002485 20 4.45183 20 9.94005C20 12.6827 18.8891 15.166 17.0926 16.9644L17.0927 16.9643C15.2824 18.8372 12.7475 20 9.9411 20C4.45078 20 0 15.5497 0 10.06C0 7.25494 1.16202 4.72128 3.03101 2.91402L3.03378 2.91134C4.82279 1.11295 7.29945 0 10.036 0H10.0647H10.0632L10.0632 1.94035e-05ZM10.0632 18.5547C14.8215 18.5547 18.6788 14.6978 18.6788 9.94005C18.6788 5.18229 14.8215 1.32536 10.0632 1.32536C5.30496 1.32536 1.44761 5.18229 1.44761 9.94005C1.45315 14.6956 5.30717 18.5492 10.0627 18.5547H10.0632ZM10.0632 8.438C10.8929 8.438 11.5655 9.1105 11.5655 9.94007C11.5655 10.7696 10.8929 11.4421 10.0632 11.4421C9.23357 11.4421 8.561 10.7696 8.561 9.93999C8.561 9.11043 9.23357 8.43796 10.0632 8.43796V8.438ZM10.0632 10.1167C10.1608 10.1167 10.24 10.0376 10.24 9.94007C10.24 9.84249 10.1608 9.76334 10.0632 9.76334C9.96562 9.76334 9.8865 9.84247 9.8865 9.94007C9.8865 10.0377 9.96562 10.1168 10.0632 10.1168V10.1167ZM10.726 9.10066H9.40048V3.18964H10.726V9.10066ZM13.8099 14.6229L10.4344 11.2477L11.371 10.3111L14.7466 13.6863L13.8099 14.6229Z" fill="black"/>
</svg>
